<?xml version="1.0" encoding="UTF-8" standalone="no"?>
<!-- Created with Inkscape (http://www.inkscape.org/) -->

<svg
   width="50mm"
   height="50mm"
   viewBox="0 0 50 50"
   version="1.1"
   id="svg1"
   inkscape:version="1.3.2 (091e20e, 2023-11-25, custom)"
   sodipodi:docname="advising_icon.svg"
   xmlns:inkscape="http://www.inkscape.org/namespaces/inkscape"
   xmlns:sodipodi="http://sodipodi.sourceforge.net/DTD/sodipodi-0.dtd"
   xmlns="http://www.w3.org/2000/svg"
   xmlns:svg="http://www.w3.org/2000/svg">
  <sodipodi:namedview
     id="namedview1"
     pagecolor="#7e7e7e"
     bordercolor="#000000"
     borderopacity="0"
     inkscape:showpageshadow="2"
     inkscape:pageopacity="0.0"
     inkscape:pagecheckerboard="true"
     inkscape:deskcolor="#d1d1d1"
     inkscape:document-units="mm"
     inkscape:zoom="1.4627806"
     inkscape:cx="-68.362953"
     inkscape:cy="116.55883"
     inkscape:window-width="1920"
     inkscape:window-height="1017"
     inkscape:window-x="-8"
     inkscape:window-y="-8"
     inkscape:window-maximized="1"
     inkscape:current-layer="layer1" />
  <defs
     id="defs1" />
  <g
     inkscape:label="Layer 1"
     inkscape:groupmode="layer"
     id="layer1">
    <path
       id="path2"
       style="fill:none;stroke:#ffffff;stroke-width:2.5;stroke-linecap:round;stroke-linejoin:round"
       d="M 25.000258,3.6781079 A 22.023703,18.406164 0 0 0 2.9762799,22.08422 22.023703,18.406164 0 0 0 21.543105,40.244351 l 3.50883,6.077666 3.520715,-6.098853 A 22.023703,18.406164 0 0 0 47.02372,22.08422 22.023703,18.406164 0 0 0 25.000258,3.6781079 Z"
       inkscape:label="path2" />
    <path
       id="path13"
       style="fill:#ffffff;fill-opacity:1;stroke:#ffffff;stroke-width:2.41558;stroke-linecap:round;stroke-linejoin:round;stroke-dasharray:none;stroke-opacity:1"
       d="m 16.851168,23.251069 v 2.211234 c 0,0.02815 0.02408,0.05188 0.05839,0.06408 a 8.1251192,3.3901432 0 0 0 8.090462,3.167765 8.1251192,3.3901432 0 0 0 8.090463,-3.167765 c 0.0343,-0.01221 0.05839,-0.03593 0.05839,-0.06408 v -2.211234 l -8.069792,4.114477 c -0.04394,0.0224 -0.114708,0.0224 -0.158646,0 z" />
    <rect
       style="display:inline;fill:#ffffff;fill-opacity:1;stroke:#ffffff;stroke-width:2.32027;stroke-linecap:round;stroke-linejoin:round;stroke-dasharray:none;stroke-opacity:1"
       id="rect9"
       width="12.50651"
       height="12.50651"
       x="28.072279"
       y="0.0096733281"
       ry="0.089027897"
       transform="matrix(0.89086522,0.45426772,-0.89086522,0.45426772,0,0)" />
    <path
       style="fill:#ffffff;fill-opacity:1;stroke:#ffffff;stroke-width:1;stroke-linecap:round;stroke-linejoin:round;stroke-dasharray:none;stroke-dashoffset:0;stroke-opacity:1;paint-order:normal"
       d="m 36.112507,19.260311 v 3.83698"
       id="path14" />
    <circle
       style="fill:#ffffff;fill-opacity:1;stroke:#ffffff;stroke-width:1;stroke-linecap:round;stroke-linejoin:round;stroke-dasharray:none;stroke-dashoffset:0;stroke-opacity:1;paint-order:normal"
       id="path15"
       cx="36.112511"
       cy="23.663042"
       r="0.35971689" />
  </g>
</svg>
