<?xml version="1.0" encoding="UTF-8" standalone="no"?>
<!-- Created with Inkscape (http://www.inkscape.org/) -->

<svg
   width="50mm"
   height="50mm"
   viewBox="0 0 50 50"
   version="1.1"
   id="svg1"
   inkscape:version="1.3.2 (091e20e, 2023-11-25, custom)"
   sodipodi:docname="buildings_icon.svg"
   xmlns:inkscape="http://www.inkscape.org/namespaces/inkscape"
   xmlns:sodipodi="http://sodipodi.sourceforge.net/DTD/sodipodi-0.dtd"
   xmlns="http://www.w3.org/2000/svg"
   xmlns:svg="http://www.w3.org/2000/svg">
  <sodipodi:namedview
     id="namedview1"
     pagecolor="#505050"
     bordercolor="#ffffff"
     borderopacity="1"
     inkscape:showpageshadow="0"
     inkscape:pageopacity="0"
     inkscape:pagecheckerboard="1"
     inkscape:deskcolor="#505050"
     inkscape:document-units="mm"
     inkscape:zoom="2.9255612"
     inkscape:cx="90.068189"
     inkscape:cy="128.69326"
     inkscape:window-width="1920"
     inkscape:window-height="1017"
     inkscape:window-x="1912"
     inkscape:window-y="-8"
     inkscape:window-maximized="1"
     inkscape:current-layer="layer1" />
  <defs
     id="defs1" />
  <g
     inkscape:label="Layer 1"
     inkscape:groupmode="layer"
     id="layer1">
    <g
       id="g6"
       transform="translate(18.095923,-3.8372092)">
      <path
         id="rect1"
         style="fill:#ffffff;stroke-width:2.5;stroke-linejoin:round"
         d="m -11.864945,7.6744183 c -1.252566,0 -2.261361,1.0087959 -2.261361,2.2613607 v 37.80286 c 0,1.252566 1.008795,2.261361 2.261361,2.261361 h 5.1779778 v -7.67395 c 0,-0.626286 0.503878,-1.130681 1.130164,-1.130681 h 4.83743001 c 0.626286,0 1.130681,0.504395 1.130681,1.130681 V 50 H 5.5892858 c 1.252566,0 2.261361,-1.008795 2.261361,-2.261361 V 9.8283693 c 0,-1.2525648 -1.008795,-2.153951 -2.261361,-2.153951 z m 2.7745068,3.2948897 h 2.952792 c 1.136041,0 2.05052,0.914474 2.05052,2.05052 v 2.953308 c 0,1.136048 -0.914479,2.050521 -2.05052,2.050521 h -2.952792 c -1.1360468,0 -2.0505208,-0.914473 -2.0505208,-2.050521 v -2.953308 c 0,-1.136046 0.914474,-2.05052 2.0505208,-2.05052 z m 8.95242501,0 H 2.8147788 c 1.136048,0 2.05052,0.914473 2.05052,2.05052 v 2.953308 c 0,1.136049 -0.914472,2.050521 -2.05052,2.050521 h -2.95279199 c -1.13604801,0 -2.05103701,-0.914472 -2.05103701,-2.050521 v -2.953308 c 0,-1.136047 0.914989,-2.05052 2.05103701,-2.05052 z m -8.95242501,9.762194 h 2.952792 c 1.136045,0 2.05052,0.914471 2.05052,2.050521 v 2.952791 c 0,1.13605 -0.914475,2.050521 -2.05052,2.050521 h -2.952792 c -1.1360488,0 -2.0505208,-0.914471 -2.0505208,-2.050521 v -2.952791 c 0,-1.13605 0.914472,-2.050521 2.0505208,-2.050521 z m 8.95242501,0 H 2.8147788 c 1.13605,0 2.05052,0.91447 2.05052,2.050521 v 2.952791 c 0,1.136051 -0.91447,2.050521 -2.05052,2.050521 h -2.95279199 c -1.13605001,0 -2.05103701,-0.91447 -2.05103701,-2.050521 v -2.952791 c 0,-1.136051 0.914987,-2.050521 2.05103701,-2.050521 z M -9.0904382,30.49318 h 2.952792 c 1.136049,0 2.05052,0.914469 2.05052,2.050521 v 2.952791 c 0,1.136052 -0.914471,2.051038 -2.05052,2.051038 h -2.952792 c -1.1360508,0 -2.0505208,-0.914986 -2.0505208,-2.051038 v -2.952791 c 0,-1.136052 0.91447,-2.050521 2.0505208,-2.050521 z m 8.95242501,0 H 2.8147788 c 1.136052,0 2.05052,0.914468 2.05052,2.050521 v 2.952791 c 0,1.136053 -0.914468,2.051038 -2.05052,2.051038 h -2.95279199 c -1.13605201,0 -2.05103701,-0.914985 -2.05103701,-2.051038 v -2.952791 c 0,-1.136053 0.914985,-2.050521 2.05103701,-2.050521 z"
         sodipodi:nodetypes="sssscsssscsssssssssssssssssssssssssssssssssssssssssssssssssssssssssss" />
      <path
         id="rect5"
         style="fill:#ffffff;fill-opacity:1;stroke:none;stroke-width:2.5;stroke-linejoin:round"
         d="m 13.806123,20.071594 c -1.136053,0 -2.050521,0.914985 -2.050521,2.051038 V 47.949479 C 11.755602,49.085532 12.67007,50 13.806123,50 h 12.077815 c 1.136053,0 2.050521,-0.914468 2.050521,-2.050521 V 22.122632 c 0,-1.136053 -0.914468,-2.051038 -2.050521,-2.051038 z m 4.562512,3.220992 h 2.952791 c 1.136053,0 2.050521,0.914985 2.050521,2.051038 v 2.952791 c 0,1.136053 -0.914468,2.050521 -2.050521,2.050521 h -2.952791 c -1.136053,0 -2.050521,-0.914468 -2.050521,-2.050521 v -2.952791 c 0,-1.136053 0.914468,-2.051038 2.050521,-2.051038 z m 0,9.753927 h 2.952791 c 1.136054,0 2.050521,0.914467 2.050521,2.050521 v 2.952791 c 0,1.136054 -0.914467,2.050521 -2.050521,2.050521 h -2.952791 c -1.136054,0 -2.050521,-0.914467 -2.050521,-2.050521 v -2.952791 c 0,-1.136054 0.914467,-2.050521 2.050521,-2.050521 z" />
    </g>
  </g>
</svg>
