<?xml version="1.0" encoding="UTF-8" standalone="no"?>
<!-- Created with Inkscape (http://www.inkscape.org/) -->

<svg
   width="50mm"
   height="50mm"
   viewBox="0 0 50 50"
   version="1.1"
   id="svg1"
   inkscape:version="1.3.2 (091e20e, 2023-11-25, custom)"
   sodipodi:docname="study_icon.svg"
   xmlns:inkscape="http://www.inkscape.org/namespaces/inkscape"
   xmlns:sodipodi="http://sodipodi.sourceforge.net/DTD/sodipodi-0.dtd"
   xmlns="http://www.w3.org/2000/svg"
   xmlns:svg="http://www.w3.org/2000/svg">
  <sodipodi:namedview
     id="namedview1"
     pagecolor="#a4a4a4"
     bordercolor="#000000"
     borderopacity="0.25"
     inkscape:showpageshadow="2"
     inkscape:pageopacity="0.0"
     inkscape:pagecheckerboard="true"
     inkscape:deskcolor="#d1d1d1"
     inkscape:document-units="mm"
     inkscape:zoom="2.0686841"
     inkscape:cx="-17.644067"
     inkscape:cy="73.71836"
     inkscape:window-width="1920"
     inkscape:window-height="1017"
     inkscape:window-x="-8"
     inkscape:window-y="-8"
     inkscape:window-maximized="1"
     inkscape:current-layer="layer1" />
  <defs
     id="defs1">
    <inkscape:path-effect
       effect="bend_path"
       id="path-effect10"
       is_visible="true"
       lpeversion="1"
       bendpath="M 2.982676,25 H 48.445705"
       prop_scale="1"
       scale_y_rel="false"
       vertical="false"
       hide_knot="false" />
    <inkscape:path-effect
       effect="bend_path"
       id="path-effect9"
       is_visible="true"
       lpeversion="1"
       bendpath="M 13.844856,25 H 36.155144"
       prop_scale="1"
       scale_y_rel="false"
       vertical="false"
       hide_knot="false" />
    <inkscape:path-effect
       effect="bend_path"
       id="path-effect8"
       is_visible="true"
       lpeversion="1"
       bendpath="M 5.6836128,23.337309 H 44.316387"
       prop_scale="1"
       scale_y_rel="false"
       vertical="false"
       hide_knot="false" />
    <inkscape:path-effect
       effect="bend_path"
       id="path-effect7"
       is_visible="true"
       lpeversion="1"
       bendpath="M 5.6836128,23.337309 H 44.316387"
       prop_scale="1"
       scale_y_rel="false"
       vertical="false"
       hide_knot="false" />
    <inkscape:path-effect
       effect="bend_path"
       id="path-effect9-7"
       is_visible="true"
       lpeversion="1"
       bendpath="M 13.844856,25 H 36.155144"
       prop_scale="1"
       scale_y_rel="false"
       vertical="false"
       hide_knot="false" />
  </defs>
  <g
     inkscape:label="Layer 1"
     inkscape:groupmode="layer"
     id="layer1">
    <g
       id="g19"
       transform="translate(3.366233,0.3775501)"
       style="display:none;fill:#ff0000">
      <g
         id="g18"
         transform="translate(0,-0.37754981)"
         style="fill:#ff0000">
        <g
           id="g16"
           transform="translate(0,5.5763345)"
           style="fill:#ff0000">
          <path
             style="fill:#ff0000;stroke:#ffffff;stroke-width:2;stroke-linecap:round;stroke-linejoin:round;stroke-dasharray:none"
             d="M 36.627588,8.501218 V 27.221984"
             id="path14" />
          <path
             style="fill:#ff0000;stroke:#ffffff;stroke-width:2;stroke-linecap:round;stroke-linejoin:round;stroke-dasharray:none"
             d="m 36.627588,27.131547 1.85593,3.214566"
             id="path15" />
        </g>
        <g
           id="g17"
           transform="translate(-2.6458334,5.6182831)"
           style="fill:#ff0000">
          <path
             style="fill:#ff0000;stroke:#ffffff;stroke-width:2;stroke-linecap:round;stroke-linejoin:round;stroke-dasharray:none"
             d="M 42.993343,8.4592697 V 27.180035"
             id="path14-3" />
          <path
             style="fill:#ff0000;stroke:#ffffff;stroke-width:2;stroke-linecap:round;stroke-linejoin:round;stroke-dasharray:none"
             d="m 42.993343,27.089598 -1.85593,3.214566"
             id="path15-3" />
        </g>
      </g>
      <path
         style="fill:#ff0000;stroke:#ffffff;stroke-width:1.85268;stroke-linecap:round;stroke-linejoin:round;stroke-dasharray:none"
         d="m 36.66992,13.626342 h 3.569866"
         id="path17" />
    </g>
    <g
       id="g10"
       transform="translate(-0.6079536)">
      <path
         id="rect10"
         style="fill:none;stroke:#ffffff;stroke-width:2;stroke-linecap:round;stroke-linejoin:round;stroke-dasharray:none"
         d="m 33.875401,40.492078 c 0,-0.851749 -0.685625,-1.537374 -1.537374,-1.537374 H 7.6480627 c -0.851749,0 -1.537374,0.685625 -1.537374,1.537374 v 2.324406 c 0,0.851749 0.685625,1.537374 1.537374,1.537374 H 32.338027 c 0.851749,0 1.537374,-0.685625 1.537374,-1.537374 z" />
      <path
         id="path10"
         style="fill:#ffffff;fill-opacity:1;stroke:#ffffff;stroke-width:2;stroke-linecap:round;stroke-linejoin:round;stroke-dasharray:none"
         d="m 7.6482431,5.646167 c -0.8517454,0 -1.5373738,0.6861454 -1.5373738,1.5378906 V 40.492102 c 0,-0.851745 0.6856284,-1.537374 1.5373738,-1.537374 H 8.3350229 V 5.646167 Z m 4.7216749,0 v 33.308561 h 19.968291 c 0.851745,0 1.537374,0.685629 1.537374,1.537374 V 7.1840576 c 0,-0.8517452 -0.685629,-1.5378906 -1.537374,-1.5378906 z m 4.013192,3.6907308 h 11.255127 c 1.310836,0 2.366264,1.0549112 2.366264,2.3657472 0,1.310836 -1.055428,2.366264 -2.366264,2.366264 H 16.38311 c -1.310833,0 -2.366264,-1.055428 -2.366264,-2.366264 0,-1.310836 1.055431,-2.3657472 2.366264,-2.3657472 z m 0,7.1871582 h 11.255127 c 1.310837,0 2.366264,1.055427 2.366264,2.366264 0,1.310837 -1.055427,2.366264 -2.366264,2.366264 H 16.38311 c -1.310835,0 -2.366264,-1.055427 -2.366264,-2.366264 0,-1.310837 1.055429,-2.366264 2.366264,-2.366264 z m 0,7.187675 h 11.255127 c 1.310838,0 2.366264,1.055426 2.366264,2.366264 0,1.310837 -1.055426,2.366264 -2.366264,2.366264 H 16.38311 c -1.310837,0 -2.366264,-1.055427 -2.366264,-2.366264 0,-1.310838 1.055427,-2.366264 2.366264,-2.366264 z" />
      <g
         id="g9"
         transform="translate(17.991672)">
        <rect
           style="fill:#ffffff;fill-opacity:1;stroke:#ffffff;stroke-width:2.69999;stroke-linecap:round;stroke-linejoin:miter;stroke-dasharray:none;stroke-opacity:1"
           id="rect8"
           width="3.5271013"
           height="17.635506"
           x="23.23645"
           y="14.436157"
           ry="0.095924504" />
        <path
           sodipodi:type="star"
           style="fill:#ffffff;fill-opacity:1;stroke:#ffffff;stroke-width:2.69999;stroke-linecap:round;stroke-linejoin:round;stroke-dasharray:none;stroke-opacity:1"
           id="path9"
           inkscape:flatsided="false"
           sodipodi:sides="3"
           sodipodi:cx="39.776695"
           sodipodi:cy="36.067616"
           sodipodi:r1="1.342943"
           sodipodi:r2="0.67147148"
           sodipodi:arg1="1.5707963"
           sodipodi:arg2="2.6179939"
           inkscape:rounded="0"
           inkscape:randomized="0"
           d="m 39.776695,37.410558 -0.581511,-1.007207 -0.581511,-1.007207 1.163022,0 1.163023,0 -0.581511,1.007207 z"
           inkscape:transform-center-y="0.6398342"
           transform="matrix(1.1734217,0,0,1.9057773,-21.674837,-37.146202)" />
      </g>
    </g>
  </g>
</svg>
