<?xml version="1.0" encoding="UTF-8" standalone="no"?>
<svg
   xml:space="preserve"
   width="33"
   height="50"
   viewBox="0 0 33 46"
   version="1.1"
   id="svg1"
   sodipodi:docname="map_icon.svg"
   inkscape:version="1.3.2 (091e20e, 2023-11-25, custom)"
   xmlns:inkscape="http://www.inkscape.org/namespaces/inkscape"
   xmlns:sodipodi="http://sodipodi.sourceforge.net/DTD/sodipodi-0.dtd"
   xmlns="http://www.w3.org/2000/svg"
   xmlns:svg="http://www.w3.org/2000/svg"><defs
     id="defs1" /><sodipodi:namedview
     id="namedview1"
     pagecolor="#ffffff"
     bordercolor="#000000"
     borderopacity="0.25"
     inkscape:showpageshadow="2"
     inkscape:pageopacity="0.0"
     inkscape:pagecheckerboard="true"
     inkscape:deskcolor="#d1d1d1"
     inkscape:zoom="16.1"
     inkscape:cx="16.490683"
     inkscape:cy="25"
     inkscape:window-width="1920"
     inkscape:window-height="1017"
     inkscape:window-x="-8"
     inkscape:window-y="-8"
     inkscape:window-maximized="1"
     inkscape:current-layer="svg1" /><path
     fill="#A3A2A3"
     d="M16.5 10.693c-3.165 0-5.741 2.558-5.741 5.705 0 3.143 2.576 5.701 5.741 5.701 3.166 0 5.74-2.558 5.74-5.701 0-3.147-2.577-5.705-5.74-5.705zm0 8.554c-1.582 0-2.871-1.277-2.871-2.849 0-1.574 1.289-2.853 2.871-2.853a2.864 2.864 0 0 1 2.87 2.853 2.863 2.863 0 0 1-2.87 2.849zM16.5 0C7.401 0 0 7.366 0 16.421c0 11.127 14.768 28.005 15.396 28.717.271.309.643.477 1.079.486a1.43 1.43 0 0 0 1.075-.482c.633-.713 15.5-17.595 15.45-28.729C32.958 7.364 25.556 0 16.5 0zm-.022 41.988c-3.389-4.091-13.61-17.128-13.61-25.567 0-7.482 6.115-13.57 13.631-13.57 7.482 0 13.595 6.091 13.63 13.578.039 8.428-10.245 21.471-13.651 25.559z"
     id="path1"
     style="fill:#ffffff;fill-opacity:1" /></svg>
