<svg xmlns="http://www.w3.org/2000/svg" xml:space="preserve" width="41" height="50" viewBox="0 0 41 41"><path fill="#A3A2A3" d="M39.511 15.296h-4.18l-.734-2.205 3.264-3.268c.5-.498.5-1.306 0-1.804l-5.098-5.098a1.27 1.27 0 0 0-1.801 0l-3.266 3.267-2.205-.734v-4.18C25.491.571 24.919 0 24.216 0H16.57c-.703 0-1.275.571-1.275 1.274v4.18l-2.205.736-3.266-3.267a1.273 1.273 0 0 0-1.803 0L2.923 8.021a1.277 1.277 0 0 0 0 1.805l3.268 3.267-.736 2.205h-4.18A1.274 1.274 0 0 0 0 16.571v7.647c0 .705.572 1.275 1.275 1.275h4.18l.736 2.205-3.268 3.268a1.276 1.276 0 0 0 0 1.804l5.098 5.099a1.278 1.278 0 0 0 1.803 0L13.09 34.6l2.205.734v4.182c0 .703.572 1.272 1.275 1.272h7.646c.703 0 1.275-.57 1.275-1.272v-4.182l2.205-.734 3.266 3.269a1.276 1.276 0 0 0 1.801 0l5.098-5.099c.5-.5.5-1.306 0-1.804l-3.264-3.268.734-2.205h4.18c.703 0 1.273-.57 1.273-1.275v-7.647a1.273 1.273 0 0 0-1.273-1.275zm-1.276 7.648h-3.823c-.55 0-1.035.351-1.209.872L31.93 27.64c-.153.458-.032.963.308 1.304l2.924 2.924-3.297 3.297-2.922-2.924a1.275 1.275 0 0 0-1.306-.308l-3.821 1.272a1.279 1.279 0 0 0-.873 1.211v3.824h-5.099v-3.824a1.28 1.28 0 0 0-.871-1.211l-3.824-1.272a1.276 1.276 0 0 0-1.303.308l-2.924 2.924-3.295-3.297 2.922-2.924c.342-.341.461-.846.309-1.304l-1.275-3.823a1.274 1.274 0 0 0-1.209-.872H2.552v-5.1h3.822c.549 0 1.035-.35 1.209-.87l1.275-3.825a1.275 1.275 0 0 0-.309-1.304L5.627 8.924l3.295-3.296 2.924 2.922c.34.342.846.46 1.303.309l3.824-1.274c.52-.175.871-.66.871-1.209V2.55h5.099v3.824c0 .549.352 1.035.873 1.209l3.821 1.273c.459.153.964.034 1.306-.308l2.922-2.922 3.297 3.296-2.924 2.922c-.34.341-.461.846-.308 1.305l1.273 3.824c.174.521.659.87 1.209.87h3.823v5.101zm-17.843-7.648a5.104 5.104 0 0 0-5.098 5.098 5.106 5.106 0 0 0 5.098 5.101c2.812 0 5.1-2.289 5.1-5.101a5.104 5.104 0 0 0-5.1-5.098zm0 7.648a2.554 2.554 0 0 1-2.549-2.551 2.554 2.554 0 0 1 2.549-2.549 2.55 2.55 0 0 1 0 5.1z"/></svg>